<svg xmlns="http://www.w3.org/2000/svg" width="760" height="400" viewBox="0 0 760 400" font-family="Pretendard, 'Apple SD Gothic Neo', 'Malgun Gothic', 'Noto Sans KR', sans-serif">
<rect width="760" height="400" rx="12" fill="#ffffff" stroke="#e5e7eb"/>
<text x="30" y="38" font-size="20" font-weight="700" fill="#1f2937">Kaggle 점수 순위</text>
<text x="30" y="60" font-size="12" fill="#6b7280">Kaggle Public Score · 상위 5개 · 오른쪽이 1위</text>
<line x1="60" y1="320.0" x2="720" y2="320.0" stroke="#f1f3f5"/>
<text x="54" y="324.0" font-size="11" fill="#9ca3af" text-anchor="end">0.38</text>
<line x1="60" y1="267.5" x2="720" y2="267.5" stroke="#f1f3f5"/>
<text x="54" y="271.5" font-size="11" fill="#9ca3af" text-anchor="end">0.45</text>
<line x1="60" y1="215.0" x2="720" y2="215.0" stroke="#f1f3f5"/>
<text x="54" y="219.0" font-size="11" fill="#9ca3af" text-anchor="end">0.52</text>
<line x1="60" y1="162.5" x2="720" y2="162.5" stroke="#f1f3f5"/>
<text x="54" y="166.5" font-size="11" fill="#9ca3af" text-anchor="end">0.58</text>
<line x1="60" y1="110.0" x2="720" y2="110.0" stroke="#f1f3f5"/>
<text x="54" y="114.0" font-size="11" fill="#9ca3af" text-anchor="end">0.65</text>
<polygon points="110.0,320 110.0,295.8 250.0,294.3 390.0,151.1 530.0,142.0 670.0,134.2 670.0,320" fill="#e9f1fa"/>
<polyline points="110.0,295.8 250.0,294.3 390.0,151.1 530.0,142.0 670.0,134.2" fill="none" stroke="#3b8fd9" stroke-width="5" stroke-linejoin="round" stroke-linecap="round"/>
<line x1="60" y1="320" x2="720" y2="320" stroke="#9ca3af"/>
<rect x="104.0" y="289.8" width="12" height="12" fill="#ffffff" stroke="#374151" stroke-width="2"/>
<text x="110.0" y="281.8" font-size="13" font-weight="700" fill="#111827" text-anchor="middle">0.4155</text>
<text x="110.0" y="342" font-size="13" font-weight="700" fill="#374151" text-anchor="middle">5위</text>
<text x="110.0" y="360" font-size="12" fill="#374151" text-anchor="middle">jw_ep100_img1280_…</text>
<text x="110.0" y="376" font-size="11" fill="#9ca3af" text-anchor="middle">엄재웅</text>
<rect x="244.0" y="288.3" width="12" height="12" fill="#ffffff" stroke="#374151" stroke-width="2"/>
<text x="250.0" y="280.3" font-size="13" font-weight="700" fill="#111827" text-anchor="middle">0.4174</text>
<text x="250.0" y="342" font-size="13" font-weight="700" fill="#374151" text-anchor="middle">4위</text>
<text x="250.0" y="360" font-size="12" fill="#374151" text-anchor="middle">yolo26n_clean_v2_…</text>
<text x="250.0" y="376" font-size="11" fill="#9ca3af" text-anchor="middle">김라희</text>
<rect x="384.0" y="145.1" width="12" height="12" fill="#ffffff" stroke="#374151" stroke-width="2"/>
<text x="390.0" y="137.1" font-size="13" font-weight="700" fill="#111827" text-anchor="middle">0.5992</text>
<text x="390.0" y="342" font-size="13" font-weight="700" fill="#374151" text-anchor="middle">3위</text>
<text x="390.0" y="360" font-size="12" fill="#374151" text-anchor="middle">rahui_ep50_img960…</text>
<text x="390.0" y="376" font-size="11" fill="#9ca3af" text-anchor="middle">김라희</text>
<rect x="524.0" y="136.0" width="12" height="12" fill="#ffffff" stroke="#374151" stroke-width="2"/>
<text x="530.0" y="128.0" font-size="13" font-weight="700" fill="#111827" text-anchor="middle">0.6107</text>
<text x="530.0" y="342" font-size="13" font-weight="700" fill="#374151" text-anchor="middle">2위</text>
<text x="530.0" y="360" font-size="12" fill="#374151" text-anchor="middle">jw_ep30_img960_ba…</text>
<text x="530.0" y="376" font-size="11" fill="#9ca3af" text-anchor="middle">엄재웅</text>
<rect x="664.0" y="128.2" width="12" height="12" fill="#f6c343" stroke="#b7791f" stroke-width="2"/>
<text x="670.0" y="120.19999999999999" font-size="13" font-weight="700" fill="#111827" text-anchor="middle">0.6207</text>
<text x="670.0" y="342" font-size="13" font-weight="700" fill="#b7791f" text-anchor="middle">1위</text>
<text x="670.0" y="360" font-size="12" fill="#374151" text-anchor="middle">jw_ep30_img960_ba…</text>
<text x="670.0" y="376" font-size="11" fill="#9ca3af" text-anchor="middle">신재민</text>
<text x="710.0" y="98.19999999999999" font-size="14" fill="#111827" text-anchor="end"><tspan font-weight="700" fill="#b7791f">1위</tspan> jw_ep30_img960_batch8_lr0.001_cos_lr_aihubdata · 신재민</text>
</svg>
